<svg width="14" height="17" viewBox="0 0 14 17" fill="none" xmlns="http://www.w3.org/2000/svg">
<path d="M5.44444 2.1C5.44444 1.21634 6.14089 0.5 7 0.5C7.85911 0.5 8.55556 1.21634 8.55556 2.1V2.3319C10.8045 3.02034 12.4444 5.16318 12.4444 7.7V11.7L13.4686 12.2267C13.7943 12.3942 14 12.7366 14 13.1111C14 13.6573 13.5696 14.1 13.0386 14.1H0.961387C0.430428 14.1 0 13.6573 0 13.1111C0 12.7366 0.205739 12.3942 0.531441 12.2267L1.55556 11.7V7.7C1.55556 5.16318 3.19551 3.02034 5.44444 2.3319V2.1Z" fill="white"/>
<path d="M7 16.5C7.85911 16.5 8.55556 15.7837 8.55556 14.9H5.44444C5.44444 15.7837 6.14089 16.5 7 16.5Z" fill="white"/>
</svg>
