<svg xmlns="http://www.w3.org/2000/svg" version="1.1" xmlns:xlink="http://www.w3.org/1999/xlink" xmlns:svgjs="http://svgjs.dev/svgjs" width="1000" height="1000" viewBox="0 0 1000 1000"><rect width="1000" height="1000" fill="#ffffff"></rect><g transform="matrix(0.7,0,0,0.7,149.57575757575756,416.99999187965904)"><svg viewBox="0 0 396 94" data-background-color="#ffffff" preserveAspectRatio="xMidYMid meet" height="237" width="1000" xmlns="http://www.w3.org/2000/svg" xmlns:xlink="http://www.w3.org/1999/xlink"><g id="tight-bounds" transform="matrix(1,0,0,1,0.2400000000000091,0.028334920506637218)"><svg viewBox="0 0 395.52 93.94316201284363" height="93.94316201284363" width="395.52"><g><svg viewBox="0 0 538.0169639980022 127.78877127458178" height="93.94316201284363" width="395.52"><g transform="matrix(1,0,0,1,142.49696399800223,37.97029933769599)"><svg viewBox="0 0 395.52 51.84817259918979" height="51.84817259918979" width="395.52"><g><svg viewBox="0 0 395.52 51.84817259918979" height="51.84817259918979" width="395.52"><g><svg viewBox="0 0 395.52 31.15139345681149" height="31.15139345681149" width="395.52"><g transform="matrix(1,0,0,1,0,0)"><svg width="395.52" viewBox="3.75 -35.5 577.6500244140625 45.5" height="31.15139345681149" data-palette-color="#e8772e"><path d="M10-31.95L10-3.05Q10-1.75 9.05-0.88 8.1 0 6.85 0L6.85 0Q5.45 0 4.6-0.88 3.75-1.75 3.75-3.05L3.75-3.05 3.75-31.95Q3.75-33.25 4.65-34.13 5.55-35 6.95-35L6.95-35Q8.15-35 9.08-34.13 10-33.25 10-31.95L10-31.95ZM44.05-35L44.05-35Q45.25-35 46-34.2 46.75-33.4 46.75-32.2L46.75-32.2 46.75-3.05Q46.75-1.75 45.87-0.88 45 0 43.7 0L43.7 0Q43.05 0 42.37-0.23 41.7-0.45 41.35-0.85L41.35-0.85 21.7-25.8 23-26.6 23-2.8Q23-1.6 22.22-0.8 21.45 0 20.2 0L20.2 0Q19 0 18.25-0.8 17.5-1.6 17.5-2.8L17.5-2.8 17.5-31.95Q17.5-33.25 18.37-34.13 19.25-35 20.55-35L20.55-35Q21.25-35 22-34.73 22.75-34.45 23.1-33.9L23.1-33.9 42.15-9.6 41.3-9 41.3-32.2Q41.3-33.4 42.05-34.2 42.8-35 44.05-35ZM86.65 1.4L86.65 1.4Q87.7 1.4 88.59 2.27 89.5 3.15 89.5 4.3L89.5 4.3Q89.5 5.45 88.47 6.48 87.45 7.5 85.84 8.3 84.25 9.1 82.52 9.55 80.8 10 79.4 10L79.4 10Q76.3 10 74.45 9.43 72.59 8.85 71.4 8.13 70.2 7.4 69.15 6.83 68.09 6.25 66.59 6.25L66.59 6.25Q65.65 6.25 65.07 6.58 64.5 6.9 63.82 7.23 63.15 7.55 61.95 7.55L61.95 7.55Q60.7 7.55 59.85 6.6 59 5.65 59 4.55L59 4.55Q59 2.6 60.75 1.95L60.75 1.95 71.09-1.9 75.59-0.8 65.9 2.8 68.75 1.15Q70.5 1.15 71.82 1.68 73.15 2.2 74.34 2.85 75.55 3.5 76.82 4.03 78.09 4.55 79.75 4.55L79.75 4.55Q81.09 4.55 82.02 4.1 82.95 3.65 83.65 3.1L83.65 3.1Q84.5 2.45 85.17 1.93 85.84 1.4 86.65 1.4ZM86.45-17.5L86.45-17.5Q86.45-13.75 85.2-10.5 83.95-7.25 81.67-4.78 79.4-2.3 76.27-0.9 73.15 0.5 69.45 0.5L69.45 0.5Q65.75 0.5 62.65-0.9 59.55-2.3 57.27-4.78 55-7.25 53.75-10.5 52.5-13.75 52.5-17.5L52.5-17.5Q52.5-21.25 53.75-24.5 55-27.75 57.27-30.23 59.55-32.7 62.65-34.1 65.75-35.5 69.45-35.5L69.45-35.5Q73.15-35.5 76.27-34.1 79.4-32.7 81.67-30.23 83.95-27.75 85.2-24.5 86.45-21.25 86.45-17.5ZM79.95-17.5L79.95-17.5Q79.95-20.85 78.59-23.58 77.25-26.3 74.9-27.9 72.55-29.5 69.45-29.5L69.45-29.5Q66.34-29.5 64-27.9 61.65-26.3 60.32-23.6 59-20.9 59-17.5L59-17.5Q59-14.15 60.32-11.43 61.65-8.7 64-7.1 66.34-5.5 69.45-5.5L69.45-5.5Q72.55-5.5 74.9-7.1 77.25-8.7 78.59-11.43 79.95-14.15 79.95-17.5ZM116.84-35.05L116.84-35.05Q118.14-35.05 118.94-34.18 119.74-33.3 119.74-32L119.74-32 119.74-13.9Q119.74-9.75 117.97-6.55 116.19-3.35 113.09-1.55 109.99 0.25 105.89 0.25L105.89 0.25Q101.79 0.25 98.67-1.55 95.54-3.35 93.77-6.55 91.99-9.75 91.99-13.9L91.99-13.9 91.99-32Q91.99-33.3 92.89-34.18 93.79-35.05 95.19-35.05L95.19-35.05Q96.34-35.05 97.27-34.18 98.19-33.3 98.19-32L98.19-32 98.19-13.9Q98.19-11.4 99.27-9.58 100.34-7.75 102.12-6.75 103.89-5.75 105.89-5.75L105.89-5.75Q108.04-5.75 109.89-6.75 111.74-7.75 112.89-9.58 114.04-11.4 114.04-13.9L114.04-13.9 114.04-32Q114.04-33.3 114.79-34.18 115.54-35.05 116.84-35.05ZM133.49-31.95L133.49-3.05Q133.49-1.75 132.54-0.88 131.59 0 130.34 0L130.34 0Q128.94 0 128.09-0.88 127.24-1.75 127.24-3.05L127.24-3.05 127.24-31.95Q127.24-33.25 128.14-34.13 129.04-35 130.44-35L130.44-35Q131.64-35 132.56-34.13 133.49-33.25 133.49-31.95L133.49-31.95ZM152.24 0.5L152.24 0.5Q148.74 0.5 145.94-0.38 143.14-1.25 140.59-3.45L140.59-3.45Q139.94-4 139.59-4.7 139.24-5.4 139.24-6.1L139.24-6.1Q139.24-7.25 140.06-8.13 140.89-9 142.14-9L142.14-9Q143.09-9 143.84-8.4L143.84-8.4Q145.74-6.85 147.61-6.05 149.49-5.25 152.24-5.25L152.24-5.25Q154.09-5.25 155.64-5.83 157.19-6.4 158.14-7.38 159.09-8.35 159.09-9.6L159.09-9.6Q159.09-11.1 158.19-12.15 157.29-13.2 155.44-13.93 153.59-14.65 150.74-15.05L150.74-15.05Q148.04-15.45 145.99-16.28 143.94-17.1 142.56-18.38 141.19-19.65 140.49-21.38 139.79-23.1 139.79-25.25L139.79-25.25Q139.79-28.5 141.46-30.8 143.14-33.1 145.99-34.3 148.84-35.5 152.29-35.5L152.29-35.5Q155.54-35.5 158.31-34.52 161.09-33.55 162.84-32.05L162.84-32.05Q164.29-30.9 164.29-29.4L164.29-29.4Q164.29-28.3 163.44-27.4 162.59-26.5 161.44-26.5L161.44-26.5Q160.69-26.5 160.09-26.95L160.09-26.95Q159.29-27.65 157.94-28.28 156.59-28.9 155.09-29.33 153.59-29.75 152.29-29.75L152.29-29.75Q150.14-29.75 148.66-29.2 147.19-28.65 146.44-27.7 145.69-26.75 145.69-25.5L145.69-25.5Q145.69-24 146.56-23.03 147.44-22.05 149.09-21.48 150.74-20.9 153.04-20.45L153.04-20.45Q156.04-19.9 158.31-19.15 160.59-18.4 162.09-17.23 163.59-16.05 164.34-14.28 165.09-12.5 165.09-9.95L165.09-9.95Q165.09-6.7 163.29-4.35 161.49-2 158.56-0.75 155.64 0.5 152.24 0.5ZM177.09-31.95L177.09-3.05Q177.09-1.75 176.14-0.88 175.19 0 173.94 0L173.94 0Q172.53 0 171.69-0.88 170.84-1.75 170.84-3.05L170.84-3.05 170.84-31.95Q170.84-33.25 171.74-34.13 172.64-35 174.03-35L174.03-35Q175.24-35 176.16-34.13 177.09-33.25 177.09-31.95L177.09-31.95ZM196.43 0L196.43 0Q195.03 0 194.13-0.88 193.23-1.75 193.23-3.05L193.23-3.05 193.23-32.05 199.73-32.05 199.73-3.05Q199.73-1.75 198.81-0.88 197.88 0 196.43 0ZM207.58-29.25L185.38-29.25Q184.08-29.25 183.21-30.05 182.33-30.85 182.33-32.15L182.33-32.15Q182.33-33.45 183.21-34.23 184.08-35 185.38-35L185.38-35 207.58-35Q208.88-35 209.76-34.2 210.63-33.4 210.63-32.1L210.63-32.1Q210.63-30.8 209.76-30.03 208.88-29.25 207.58-29.25L207.58-29.25ZM222.13-31.95L222.13-3.05Q222.13-1.75 221.18-0.88 220.23 0 218.98 0L218.98 0Q217.58 0 216.73-0.88 215.88-1.75 215.88-3.05L215.88-3.05 215.88-31.95Q215.88-33.25 216.78-34.13 217.68-35 219.08-35L219.08-35Q220.28-35 221.21-34.13 222.13-33.25 222.13-31.95L222.13-31.95ZM255.18-35.1L255.18-35.1Q256.43-35.1 257.35-34.27 258.28-33.45 258.28-32.2L258.28-32.2Q258.28-31.55 257.98-30.85L257.98-30.85 245.63-1.95Q245.18-0.95 244.35-0.48 243.53 0 242.68 0L242.68 0Q241.88-0.05 241.13-0.53 240.38-1 239.98-1.9L239.98-1.9 227.63-30.9Q227.48-31.2 227.43-31.53 227.38-31.85 227.38-32.15L227.38-32.15Q227.38-33.6 228.43-34.38 229.48-35.15 230.43-35.15L230.43-35.15Q232.33-35.15 233.18-33.2L233.18-33.2 244.13-7.45 242.38-7.4 252.43-33.2Q253.28-35.1 255.18-35.1ZM266.58-35L266.58-35 283.33-35Q284.63-35 285.5-34.18 286.38-33.35 286.38-32.05L286.38-32.05Q286.38-30.8 285.5-30.03 284.63-29.25 283.33-29.25L283.33-29.25 269.33-29.25 269.78-30.1 269.78-20.35 269.38-20.75 281.08-20.75Q282.38-20.75 283.25-19.93 284.13-19.1 284.13-17.8L284.13-17.8Q284.13-16.55 283.25-15.78 282.38-15 281.08-15L281.08-15 269.53-15 269.78-15.4 269.78-5.3 269.38-5.75 283.33-5.75Q284.63-5.75 285.5-4.88 286.38-4 286.38-2.85L286.38-2.85Q286.38-1.6 285.5-0.8 284.63 0 283.33 0L283.33 0 266.58 0Q265.28 0 264.4-0.88 263.53-1.75 263.53-3.05L263.53-3.05 263.53-31.95Q263.53-33.25 264.4-34.13 265.28-35 266.58-35ZM338.52 1.4L338.52 1.4Q339.57 1.4 340.47 2.27 341.37 3.15 341.37 4.3L341.37 4.3Q341.37 5.45 340.35 6.48 339.32 7.5 337.72 8.3 336.12 9.1 334.4 9.55 332.67 10 331.27 10L331.27 10Q328.17 10 326.32 9.43 324.47 8.85 323.27 8.13 322.07 7.4 321.02 6.83 319.97 6.25 318.47 6.25L318.47 6.25Q317.52 6.25 316.95 6.58 316.37 6.9 315.7 7.23 315.02 7.55 313.82 7.55L313.82 7.55Q312.57 7.55 311.72 6.6 310.87 5.65 310.87 4.55L310.87 4.55Q310.87 2.6 312.62 1.95L312.62 1.95 322.97-1.9 327.47-0.8 317.77 2.8 320.62 1.15Q322.37 1.15 323.7 1.68 325.02 2.2 326.22 2.85 327.42 3.5 328.7 4.03 329.97 4.55 331.62 4.55L331.62 4.55Q332.97 4.55 333.9 4.1 334.82 3.65 335.52 3.1L335.52 3.1Q336.37 2.45 337.05 1.93 337.72 1.4 338.52 1.4ZM338.32-17.5L338.32-17.5Q338.32-13.75 337.07-10.5 335.82-7.25 333.55-4.78 331.27-2.3 328.15-0.9 325.02 0.5 321.32 0.5L321.32 0.5Q317.62 0.5 314.52-0.9 311.42-2.3 309.15-4.78 306.87-7.25 305.62-10.5 304.37-13.75 304.37-17.5L304.37-17.5Q304.37-21.25 305.62-24.5 306.87-27.75 309.15-30.23 311.42-32.7 314.52-34.1 317.62-35.5 321.32-35.5L321.32-35.5Q325.02-35.5 328.15-34.1 331.27-32.7 333.55-30.23 335.82-27.75 337.07-24.5 338.32-21.25 338.32-17.5ZM331.82-17.5L331.82-17.5Q331.82-20.85 330.47-23.58 329.12-26.3 326.77-27.9 324.42-29.5 321.32-29.5L321.32-29.5Q318.22-29.5 315.87-27.9 313.52-26.3 312.2-23.6 310.87-20.9 310.87-17.5L310.87-17.5Q310.87-14.15 312.2-11.43 313.52-8.7 315.87-7.1 318.22-5.5 321.32-5.5L321.32-5.5Q324.42-5.5 326.77-7.1 329.12-8.7 330.47-11.43 331.82-14.15 331.82-17.5ZM368.72-35.05L368.72-35.05Q370.02-35.05 370.82-34.18 371.62-33.3 371.62-32L371.62-32 371.62-13.9Q371.62-9.75 369.84-6.55 368.07-3.35 364.97-1.55 361.87 0.25 357.77 0.25L357.77 0.25Q353.67 0.25 350.54-1.55 347.42-3.35 345.64-6.55 343.87-9.75 343.87-13.9L343.87-13.9 343.87-32Q343.87-33.3 344.77-34.18 345.67-35.05 347.07-35.05L347.07-35.05Q348.22-35.05 349.14-34.18 350.07-33.3 350.07-32L350.07-32 350.07-13.9Q350.07-11.4 351.14-9.58 352.22-7.75 353.99-6.75 355.77-5.75 357.77-5.75L357.77-5.75Q359.92-5.75 361.77-6.75 363.62-7.75 364.77-9.58 365.92-11.4 365.92-13.9L365.92-13.9 365.92-32Q365.92-33.3 366.67-34.18 367.42-35.05 368.72-35.05ZM382.17-35L382.17-35 398.92-35Q400.22-35 401.09-34.18 401.97-33.35 401.97-32.05L401.97-32.05Q401.97-30.8 401.09-30.03 400.22-29.25 398.92-29.25L398.92-29.25 384.92-29.25 385.37-30.1 385.37-20.35 384.97-20.75 396.67-20.75Q397.97-20.75 398.84-19.93 399.72-19.1 399.72-17.8L399.72-17.8Q399.72-16.55 398.84-15.78 397.97-15 396.67-15L396.67-15 385.12-15 385.37-15.4 385.37-5.3 384.97-5.75 398.92-5.75Q400.22-5.75 401.09-4.88 401.97-4 401.97-2.85L401.97-2.85Q401.97-1.6 401.09-0.8 400.22 0 398.92 0L398.92 0 382.17 0Q380.87 0 379.99-0.88 379.12-1.75 379.12-3.05L379.12-3.05 379.12-31.95Q379.12-33.25 379.99-34.13 380.87-35 382.17-35ZM418.96 0.5L418.96 0.5Q415.46 0.5 412.66-0.38 409.86-1.25 407.31-3.45L407.31-3.45Q406.66-4 406.31-4.7 405.96-5.4 405.96-6.1L405.96-6.1Q405.96-7.25 406.79-8.13 407.61-9 408.86-9L408.86-9Q409.81-9 410.56-8.4L410.56-8.4Q412.46-6.85 414.34-6.05 416.21-5.25 418.96-5.25L418.96-5.25Q420.81-5.25 422.36-5.83 423.91-6.4 424.86-7.38 425.81-8.35 425.81-9.6L425.81-9.6Q425.81-11.1 424.91-12.15 424.01-13.2 422.16-13.93 420.31-14.65 417.46-15.05L417.46-15.05Q414.76-15.45 412.71-16.28 410.66-17.1 409.29-18.38 407.91-19.65 407.21-21.38 406.51-23.1 406.51-25.25L406.51-25.25Q406.51-28.5 408.19-30.8 409.86-33.1 412.71-34.3 415.56-35.5 419.01-35.5L419.01-35.5Q422.26-35.5 425.04-34.52 427.81-33.55 429.56-32.05L429.56-32.05Q431.01-30.9 431.01-29.4L431.01-29.4Q431.01-28.3 430.16-27.4 429.31-26.5 428.16-26.5L428.16-26.5Q427.41-26.5 426.81-26.95L426.81-26.95Q426.01-27.65 424.66-28.28 423.31-28.9 421.81-29.33 420.31-29.75 419.01-29.75L419.01-29.75Q416.86-29.75 415.39-29.2 413.91-28.65 413.16-27.7 412.41-26.75 412.41-25.5L412.41-25.5Q412.41-24 413.29-23.03 414.16-22.05 415.81-21.48 417.46-20.9 419.76-20.45L419.76-20.45Q422.76-19.9 425.04-19.15 427.31-18.4 428.81-17.23 430.31-16.05 431.06-14.28 431.81-12.5 431.81-9.95L431.81-9.95Q431.81-6.7 430.01-4.35 428.21-2 425.29-0.75 422.36 0.5 418.96 0.5ZM449.41 0L449.41 0Q448.01 0 447.11-0.88 446.21-1.75 446.21-3.05L446.21-3.05 446.21-32.05 452.71-32.05 452.71-3.05Q452.71-1.75 451.79-0.88 450.86 0 449.41 0ZM460.56-29.25L438.36-29.25Q437.06-29.25 436.19-30.05 435.31-30.85 435.31-32.15L435.31-32.15Q435.31-33.45 436.19-34.23 437.06-35 438.36-35L438.36-35 460.56-35Q461.86-35 462.74-34.2 463.61-33.4 463.61-32.1L463.61-32.1Q463.61-30.8 462.74-30.03 461.86-29.25 460.56-29.25L460.56-29.25ZM475.11-31.95L475.11-3.05Q475.11-1.75 474.16-0.88 473.21 0 471.96 0L471.96 0Q470.56 0 469.71-0.88 468.86-1.75 468.86-3.05L468.86-3.05 468.86-31.95Q468.86-33.25 469.76-34.13 470.66-35 472.06-35L472.06-35Q473.26-35 474.18-34.13 475.11-33.25 475.11-31.95L475.11-31.95ZM514.81-17.5L514.81-17.5Q514.81-13.75 513.56-10.5 512.31-7.25 510.03-4.78 507.76-2.3 504.63-0.9 501.51 0.5 497.81 0.5L497.81 0.5Q494.11 0.5 491.01-0.9 487.91-2.3 485.63-4.78 483.36-7.25 482.11-10.5 480.86-13.75 480.86-17.5L480.86-17.5Q480.86-21.25 482.11-24.5 483.36-27.75 485.63-30.23 487.91-32.7 491.01-34.1 494.11-35.5 497.81-35.5L497.81-35.5Q501.51-35.5 504.63-34.1 507.76-32.7 510.03-30.23 512.31-27.75 513.56-24.5 514.81-21.25 514.81-17.5ZM508.31-17.5L508.31-17.5Q508.31-20.85 506.96-23.58 505.61-26.3 503.26-27.9 500.91-29.5 497.81-29.5L497.81-29.5Q494.71-29.5 492.36-27.9 490.01-26.3 488.68-23.6 487.36-20.9 487.36-17.5L487.36-17.5Q487.36-14.15 488.68-11.43 490.01-8.7 492.36-7.1 494.71-5.5 497.81-5.5L497.81-5.5Q500.91-5.5 503.26-7.1 505.61-8.7 506.96-11.43 508.31-14.15 508.31-17.5ZM547.1-35L547.1-35Q548.3-35 549.05-34.2 549.8-33.4 549.8-32.2L549.8-32.2 549.8-3.05Q549.8-1.75 548.93-0.88 548.05 0 546.75 0L546.75 0Q546.1 0 545.43-0.23 544.75-0.45 544.4-0.85L544.4-0.85 524.75-25.8 526.05-26.6 526.05-2.8Q526.05-1.6 525.28-0.8 524.5 0 523.25 0L523.25 0Q522.05 0 521.3-0.8 520.55-1.6 520.55-2.8L520.55-2.8 520.55-31.95Q520.55-33.25 521.43-34.13 522.3-35 523.6-35L523.6-35Q524.3-35 525.05-34.73 525.8-34.45 526.15-33.9L526.15-33.9 545.2-9.6 544.35-9 544.35-32.2Q544.35-33.4 545.1-34.2 545.85-35 547.1-35ZM568.55 0.5L568.55 0.5Q565.05 0.5 562.25-0.38 559.45-1.25 556.9-3.45L556.9-3.45Q556.25-4 555.9-4.7 555.55-5.4 555.55-6.1L555.55-6.1Q555.55-7.25 556.38-8.13 557.2-9 558.45-9L558.45-9Q559.4-9 560.15-8.4L560.15-8.4Q562.05-6.85 563.93-6.05 565.8-5.25 568.55-5.25L568.55-5.25Q570.4-5.25 571.95-5.83 573.5-6.4 574.45-7.38 575.4-8.35 575.4-9.6L575.4-9.6Q575.4-11.1 574.5-12.15 573.6-13.2 571.75-13.93 569.9-14.65 567.05-15.05L567.05-15.05Q564.35-15.45 562.3-16.28 560.25-17.1 558.88-18.38 557.5-19.65 556.8-21.38 556.1-23.1 556.1-25.25L556.1-25.25Q556.1-28.5 557.78-30.8 559.45-33.1 562.3-34.3 565.15-35.5 568.6-35.5L568.6-35.5Q571.85-35.5 574.63-34.52 577.4-33.55 579.15-32.05L579.15-32.05Q580.6-30.9 580.6-29.4L580.6-29.4Q580.6-28.3 579.75-27.4 578.9-26.5 577.75-26.5L577.75-26.5Q577-26.5 576.4-26.95L576.4-26.95Q575.6-27.65 574.25-28.28 572.9-28.9 571.4-29.33 569.9-29.75 568.6-29.75L568.6-29.75Q566.45-29.75 564.98-29.2 563.5-28.65 562.75-27.7 562-26.75 562-25.5L562-25.5Q562-24 562.88-23.03 563.75-22.05 565.4-21.48 567.05-20.9 569.35-20.45L569.35-20.45Q572.35-19.9 574.63-19.15 576.9-18.4 578.4-17.23 579.9-16.05 580.65-14.28 581.4-12.5 581.4-9.95L581.4-9.95Q581.4-6.7 579.6-4.35 577.8-2 574.88-0.75 571.95 0.5 568.55 0.5Z" opacity="1" transform="matrix(1,0,0,1,0,0)" fill="#e8772e" class="undefined-text-0" data-fill-palette-color="primary" id="text-0"></path></svg></g></svg></g><g transform="matrix(1,0,0,1,0,38.505489818521724)"><svg viewBox="0 0 232.209792 13.342682780668067" height="13.342682780668067" width="232.209792"><g transform="matrix(1,0,0,1,0,0)"><svg width="232.209792" viewBox="2 -37.400001525878906 673.8300170898438 38.720001220703125" height="13.342682780668067" data-palette-color="#e8772e"><path d="M31.45-28.42L31.45-28.42 31.45-25 22.02-24.51Q21.83-21.68 21.73-18.9 21.63-16.11 21.63-13.33L21.63-13.33Q21.63-9.91 21.46-6.52 21.29-3.13 21.04 0.24L21.04 0.24Q19.29 0.34 17.53 0.42 15.77 0.49 14.01 0.49L14.01 0.49Q13.38 0.49 12.77 0.46 12.16 0.44 11.57 0.44L11.57 0.44Q11.67-2.54 11.74-5.49 11.82-8.45 11.82-11.38L11.82-11.38Q11.82-14.31 11.67-17.26 11.52-20.21 11.33-23.19L11.33-23.19Q9.91-23.14 8.47-23.1 7.03-23.05 5.57-23.05L5.57-23.05Q4.74-23.05 3.93-23.05 3.13-23.05 2.29-23.1L2.29-23.1Q2.15-26.71 2.1-30.27 2.05-33.84 2-37.4L2-37.4Q9.33-37.26 16.55-36.99 23.78-36.72 31.05-36.52L31.05-36.52Q31.25-34.42 31.35-32.45 31.45-30.47 31.45-28.42ZM68.75-19.04L68.75-19.04Q68.75-17.24 68.53-15.41 68.31-13.57 68.06-11.77L68.06-11.77Q67.67-8.59 67.19-5.49 66.7-2.39 66.21 0.78L66.21 0.78Q63.82 0.83 61.52 0.98 59.23 1.12 56.88 1.32L56.88 1.32Q56.88-2.25 56.88-5.74 56.88-9.23 56.74-12.74L56.74-12.74Q56.74-13.43 56.71-14.5 56.69-15.58 56.49-16.26L56.49-16.26Q56.2-17.38 55.76-17.8 55.32-18.21 54.05-18.21L54.05-18.21Q53.17-18.21 52-18.02 50.83-17.82 49.61-17.53 48.39-17.24 47.29-16.87 46.19-16.5 45.46-16.11L45.46-16.11Q45.07-12.16 44.5-8.25 43.94-4.35 43.8-0.34L43.8-0.34 36.91-0.68Q36.37-9.47 35.89-18.19 35.4-26.9 34.96-35.69L34.96-35.69 45.7-36.38Q45.6-33.15 45.51-29.96 45.41-26.76 45.31-23.54L45.31-23.54Q46.24-24.32 47.41-24.73 48.58-25.15 49.83-25.29 51.07-25.44 52.34-25.44 53.61-25.44 54.78-25.44L54.78-25.44Q56.54-25.44 58.76-25.32 60.98-25.2 63.01-24.63 65.04-24.07 66.6-22.85 68.16-21.63 68.7-19.43L68.7-19.43Q68.75-19.34 68.75-19.24 68.75-19.14 68.75-19.04ZM106.44-18.12L106.44-18.12Q100.04-17.77 93.7-17.55 87.35-17.33 80.95-17.09L80.95-17.09Q80.9-16.89 80.9-16.7 80.9-16.5 80.9-16.31L80.9-16.31Q80.9-14.65 81.66-13.77 82.42-12.89 83.54-12.52 84.66-12.16 86.03-12.11 87.4-12.06 88.57-12.06L88.57-12.06Q91.84-12.06 95.11-12.28 98.38-12.5 101.7-12.74L101.7-12.74 102.09-4.98Q98.87-4.83 95.67-4.74 92.48-4.64 89.25-4.64L89.25-4.64Q88.57-4.64 86.74-4.66 84.91-4.69 82.83-4.81 80.76-4.93 78.95-5.13 77.14-5.32 76.56-5.66L76.56-5.66Q75.04-6.54 74.19-7.91 73.33-9.28 72.87-10.89 72.41-12.5 72.24-14.18 72.07-15.87 72.02-17.43L72.02-17.43Q71.97-17.68 71.99-17.94 72.02-18.21 72.02-18.46L72.02-18.46Q72.02-21.04 72.58-23.27 73.14-25.49 74.65-27.59L74.65-27.59Q75.68-29.05 77.68-30.03 79.68-31.01 82.03-31.57 84.37-32.13 86.71-32.35 89.06-32.57 90.77-32.57L90.77-32.57Q92.28-32.57 94.48-32.3 96.67-32.03 98.85-31.4 101.02-30.76 102.78-29.76 104.54-28.76 105.17-27.29L105.17-27.29Q105.27-27 105.39-26.29 105.51-25.59 105.66-24.68 105.81-23.78 105.93-22.75 106.05-21.73 106.15-20.8 106.25-19.87 106.32-19.14 106.39-18.41 106.44-18.12ZM83.49-21.14L99.8-21.68Q99.51-23.83 98.7-25.07 97.9-26.32 96.7-26.93 95.5-27.54 93.96-27.71 92.43-27.88 90.67-27.88L90.67-27.88Q90.08-27.88 89.2-27.86 88.33-27.83 87.45-27.71 86.57-27.59 85.79-27.34 85-27.1 84.57-26.66L84.57-26.66Q84.22-26.37 84-25.85 83.78-25.34 83.64-24.76 83.49-24.17 83.42-23.61 83.34-23.05 83.34-22.66L83.34-22.66Q83.34-21.88 83.49-21.14L83.49-21.14ZM162.34-11.57L162.34-11.57 162.29-3.96Q160.05-3.52 157.85-3.13 155.65-2.73 153.41-2.44L153.41-2.44Q151.06-2.15 148.72-1.9 146.38-1.66 144.03-1.66L144.03-1.66Q143.35-1.66 142.03-1.71 140.71-1.76 139.3-1.9 137.88-2.05 136.61-2.27 135.34-2.49 134.76-2.83L134.76-2.83Q134.22-3.17 133.73-3.64 133.24-4.1 132.85-4.59L132.85-4.59Q131.83-5.86 131.14-7.37 130.46-8.89 130.07-10.5 129.68-12.11 129.51-13.77 129.34-15.43 129.34-17.04L129.34-17.04Q129.34-18.99 129.56-21.09 129.78-23.19 130.26-25.24 130.75-27.29 131.56-29.2 132.36-31.1 133.53-32.71L133.53-32.71Q133.88-33.15 134.41-33.79 134.95-34.42 135.49-34.72L135.49-34.72Q136.81-35.45 138.44-35.94 140.08-36.43 141.84-36.69 143.59-36.96 145.33-37.08 147.06-37.21 148.53-37.21L148.53-37.21Q151.31-37.21 154.09-36.89 156.87-36.57 159.51-35.79L159.51-35.79Q159.41-34.47 159.37-33.13 159.32-31.79 159.32-30.47L159.32-30.47Q159.32-27.29 159.46-24.07L159.46-24.07Q157.27-24.9 154.87-25.27 152.48-25.63 150.14-25.63L150.14-25.63Q149.65-25.63 148.72-25.56 147.79-25.49 146.62-25.37 145.45-25.24 144.2-25.05 142.96-24.85 141.88-24.56 140.81-24.27 140-23.88 139.2-23.49 138.95-23.05L138.95-23.05Q138.76-22.66 138.64-21.95 138.52-21.24 138.44-20.46 138.37-19.68 138.34-18.95 138.32-18.21 138.32-17.77L138.32-17.77Q138.32-17.33 138.42-16.02 138.52-14.7 138.66-13.21 138.81-11.72 139.03-10.5 139.25-9.28 139.49-9.08L139.49-9.08Q139.74-8.94 140.3-8.91 140.86-8.89 141.05-8.89L141.05-8.89Q143.45-8.89 146.18-9.13 148.92-9.38 151.72-9.79 154.53-10.21 157.27-10.67 160-11.13 162.34-11.57ZM202.09-19.34L202.09-19.34Q202.09-18.95 202.09-18.58 202.09-18.21 202.04-17.82L202.04-17.82Q201.99-17.14 201.79-15.58 201.6-14.01 201.26-12.33 200.92-10.64 200.43-9.23 199.94-7.81 199.35-7.42L199.35-7.42Q199.06-7.23 197.38-7.08 195.69-6.93 193.27-6.79 190.86-6.64 188.02-6.54 185.19-6.45 182.63-6.37 180.07-6.3 178.14-6.25 176.21-6.2 175.57-6.2L175.57-6.2Q175.28-6.2 174.57-6.2 173.86-6.2 173.08-6.23 172.3-6.25 171.62-6.3 170.93-6.35 170.64-6.45L170.64-6.45Q169.96-6.69 169.27-7.25 168.59-7.81 168.01-8.52 167.42-9.23 166.96-9.99 166.49-10.74 166.3-11.43L166.3-11.43Q166.15-11.96 166.05-13.06 165.95-14.16 165.91-15.36 165.86-16.55 165.83-17.68 165.81-18.8 165.81-19.38L165.81-19.38Q165.81-20.31 165.86-21.95 165.91-23.58 166.15-25.29 166.39-27 166.86-28.49 167.32-29.98 168.2-30.57L168.2-30.57Q168.59-30.81 169.67-31.01 170.74-31.2 172.2-31.35 173.67-31.49 175.33-31.57 176.99-31.64 178.58-31.67 180.16-31.69 181.53-31.69 182.9-31.69 183.73-31.64L183.73-31.64Q184.46-31.59 185.83-31.57 187.19-31.54 188.88-31.49 190.56-31.45 192.37-31.32 194.18-31.2 195.74-31.01 197.3-30.81 198.5-30.49 199.69-30.18 200.09-29.74L200.09-29.74Q200.72-29.05 201.11-27.69 201.5-26.32 201.72-24.78 201.94-23.24 202.01-21.75 202.09-20.26 202.09-19.34ZM191.74-18.31L191.74-18.31Q191.74-18.9 191.69-19.68 191.64-20.46 191.54-21.26 191.44-22.07 191.25-22.83 191.05-23.58 190.76-24.07L190.76-24.07Q190.37-24.71 189.25-25.05 188.12-25.39 186.78-25.56 185.44-25.73 184.14-25.78 182.85-25.83 182.21-25.83L182.21-25.83Q181.87-25.83 180.99-25.81 180.11-25.78 179.16-25.73 178.21-25.68 177.38-25.56 176.55-25.44 176.31-25.29L176.31-25.29Q175.87-25 175.62-24.39 175.38-23.78 175.26-23.05 175.13-22.31 175.11-21.61 175.09-20.9 175.09-20.46L175.09-20.46Q175.09-20.02 175.16-18.87 175.23-17.72 175.35-16.43 175.48-15.14 175.67-14.06 175.87-12.99 176.16-12.7L176.16-12.7Q176.5-12.3 177.45-12.06 178.41-11.82 179.5-11.65 180.6-11.47 181.63-11.4 182.65-11.33 183.09-11.33L183.09-11.33Q183.87-11.33 184.95-11.38 186.02-11.43 187.12-11.62 188.22-11.82 189.2-12.16 190.17-12.5 190.76-13.09L190.76-13.09Q191.1-13.43 191.3-14.11 191.49-14.79 191.59-15.58 191.69-16.36 191.71-17.11 191.74-17.87 191.74-18.31ZM237.14-27.54L237.14-27.54Q235.34-24.17 233.58-21.02 231.82-17.87 229.99-14.82 228.16-11.77 226.21-8.74 224.25-5.71 222.06-2.59L222.06-2.59 213.56-2.25 203.89-27.78 214.73-28.08Q215.71-23.54 216.61-19.02 217.51-14.5 218.49-9.91L218.49-9.91Q220.35-14.21 222.08-18.46 223.81-22.71 225.23-27.2L225.23-27.2Q228.26-27.2 231.19-27.25 234.12-27.29 237.14-27.54ZM272.05-18.12L272.05-18.12Q265.66-17.77 259.31-17.55 252.96-17.33 246.56-17.09L246.56-17.09Q246.52-16.89 246.52-16.7 246.52-16.5 246.52-16.31L246.52-16.31Q246.52-14.65 247.27-13.77 248.03-12.89 249.15-12.52 250.28-12.16 251.64-12.11 253.01-12.06 254.18-12.06L254.18-12.06Q257.45-12.06 260.72-12.28 264-12.5 267.32-12.74L267.32-12.74 267.71-4.98Q264.48-4.83 261.29-4.74 258.09-4.64 254.87-4.64L254.87-4.64Q254.18-4.64 252.35-4.66 250.52-4.69 248.44-4.81 246.37-4.93 244.56-5.13 242.76-5.32 242.17-5.66L242.17-5.66Q240.66-6.54 239.8-7.91 238.95-9.28 238.48-10.89 238.02-12.5 237.85-14.18 237.68-15.87 237.63-17.43L237.63-17.43Q237.58-17.68 237.6-17.94 237.63-18.21 237.63-18.46L237.63-18.46Q237.63-21.04 238.19-23.27 238.75-25.49 240.27-27.59L240.27-27.59Q241.29-29.05 243.29-30.03 245.3-31.01 247.64-31.57 249.98-32.13 252.33-32.35 254.67-32.57 256.38-32.57L256.38-32.57Q257.89-32.57 260.09-32.3 262.29-32.03 264.46-31.4 266.63-30.76 268.39-29.76 270.15-28.76 270.78-27.29L270.78-27.29Q270.88-27 271-26.29 271.13-25.59 271.27-24.68 271.42-23.78 271.54-22.75 271.66-21.73 271.76-20.8 271.86-19.87 271.93-19.14 272-18.41 272.05-18.12ZM249.1-21.14L265.41-21.68Q265.12-23.83 264.31-25.07 263.51-26.32 262.31-26.93 261.12-27.54 259.58-27.71 258.04-27.88 256.28-27.88L256.28-27.88Q255.7-27.88 254.82-27.86 253.94-27.83 253.06-27.71 252.18-27.59 251.4-27.34 250.62-27.1 250.18-26.66L250.18-26.66Q249.84-26.37 249.62-25.85 249.4-25.34 249.25-24.76 249.1-24.17 249.03-23.61 248.96-23.05 248.96-22.66L248.96-22.66Q248.96-21.88 249.1-21.14L249.1-21.14ZM304.08-20.61L304.08-20.61 304.08-19.48 294.66-19.04Q294.8-19.68 294.8-20.51L294.8-20.51Q294.8-21.73 294.46-22.09 294.12-22.46 292.95-22.46L292.95-22.46Q291.29-22.46 289.29-21.88 287.28-21.29 285.77-20.75L285.77-20.75Q285.53-18.6 285.38-16.46 285.23-14.31 285.23-12.16L285.23-12.16Q285.23-9.77 285.26-7.4 285.28-5.03 285.33-2.64L285.33-2.64 276.93-2.1Q276.69-5.22 276.44-8.33 276.2-11.43 276.01-14.55L276.01-14.55Q275.76-18.7 275.37-22.83 274.98-26.95 274.59-31.15L274.59-31.15Q277.37-30.96 280.13-30.59 282.89-30.22 285.67-29.69L285.67-29.69 285.43-25.59Q286.89-26.76 288.24-27.61 289.58-28.47 290.97-29.05 292.36-29.64 293.93-29.91 295.49-30.18 297.39-30.18L297.39-30.18Q298.66-30.18 300.03-29.91 301.4-29.64 302.37-28.66L302.37-28.66Q302.86-28.13 303.2-27.05 303.54-25.98 303.74-24.78 303.94-23.58 304.01-22.44 304.08-21.29 304.08-20.61ZM333.91-33.89L333.91-33.89 333.62-27.54Q332.11-27.64 330.59-27.69 329.08-27.73 327.57-27.73L327.57-27.73Q326.93-27.73 325.76-27.71 324.59-27.69 323.15-27.64 321.71-27.59 320.19-27.49 318.68-27.39 317.41-27.29 316.14-27.2 315.26-27.05 314.38-26.9 314.19-26.76L314.19-26.76Q313.55-26.12 313.55-25.29L313.55-25.29Q313.55-24.76 313.84-24.41L313.84-24.41Q313.94-24.27 314.92-24.17 315.9-24.07 317.31-24 318.73-23.93 320.41-23.9 322.1-23.88 323.63-23.85 325.17-23.83 326.37-23.78 327.57-23.73 328.05-23.68L328.05-23.68Q329.91-23.44 331.01-22.61 332.11-21.78 332.69-20.53 333.28-19.29 333.45-17.72 333.62-16.16 333.62-14.55L333.62-14.55Q333.62-13.77 333.5-12.7 333.38-11.62 333.13-10.55 332.89-9.47 332.42-8.54 331.96-7.62 331.33-7.08L331.33-7.08Q330.59-6.49 328.96-6.1 327.32-5.71 325.44-5.47 323.56-5.22 321.8-5.13 320.05-5.03 319.12-5.03L319.12-5.03Q315.9-5.03 312.67-5.4 309.45-5.76 306.28-6.2L306.28-6.2 306.28-15.53Q309.35-14.89 312.45-14.79 315.55-14.7 318.68-14.45L318.68-14.45Q319.31-14.4 320.61-14.38 321.9-14.36 323.22-14.43 324.54-14.5 325.61-14.75 326.69-14.99 326.93-15.43L326.93-15.43Q327.03-15.58 327.03-15.77 327.03-15.97 327.03-16.11L327.03-16.11Q327.03-16.5 326.96-17.11 326.88-17.72 326.64-18.07L326.64-18.07Q326.59-18.12 326.3-18.14 326-18.16 325.95-18.16L325.95-18.16Q323.22-18.31 320.49-18.33 317.75-18.36 314.97-18.6L314.97-18.6Q313.84-18.7 312.7-18.82 311.55-18.95 310.43-19.19L310.43-19.19Q309.5-19.38 308.74-19.63 307.99-19.87 307.42-20.26 306.86-20.65 306.47-21.26 306.08-21.88 305.93-22.9L305.93-22.9Q305.84-23.24 305.84-23.56 305.84-23.88 305.84-24.27L305.84-24.27Q305.84-25.15 305.93-26.27 306.03-27.39 306.3-28.52 306.57-29.64 306.98-30.64 307.4-31.64 308.08-32.28L308.08-32.28Q308.52-32.71 309.65-33.01 310.77-33.3 312.23-33.52 313.7-33.74 315.36-33.89 317.02-34.03 318.56-34.11 320.09-34.18 321.34-34.2 322.58-34.23 323.22-34.23L323.22-34.23Q325.95-34.23 328.62-34.13 331.28-34.03 333.91-33.89ZM373.02-22.02L373.02-22.02Q373.02-17.92 372.73-13.87 372.44-9.81 372.14-5.76L372.14-5.76Q366.67-5.27 361.25-4.93 355.83-4.59 350.37-4.59L350.37-4.59Q349.88-4.59 348.56-4.61 347.24-4.64 345.78-4.71 344.31-4.79 342.99-4.91 341.67-5.03 341.23-5.27L341.23-5.27Q339.62-6.15 338.99-7.5 338.35-8.84 338.35-10.55L338.35-10.55Q338.35-11.13 338.4-12.11 338.45-13.09 338.6-14.16 338.74-15.23 338.99-16.16 339.23-17.09 339.57-17.53L339.57-17.53Q340.01-18.12 341.58-18.53 343.14-18.95 345.31-19.19 347.48-19.43 350-19.58 352.51-19.73 354.81-19.8 357.1-19.87 358.91-19.87 360.72-19.87 361.5-19.87L361.5-19.87Q361.64-20.95 361.64-21.97L361.64-21.97Q361.64-22.07 361.64-22.49 361.64-22.9 361.6-23L361.6-23Q361.45-23.29 360.67-23.49 359.89-23.68 358.74-23.78 357.59-23.88 356.25-23.95 354.91-24.02 353.64-24.02 352.37-24.02 351.39-24.02 350.41-24.02 349.98-24.02L349.98-24.02Q346.9-24.02 343.82-23.9 340.75-23.78 337.67-23.68L337.67-23.68Q337.87-25.54 337.99-27.44 338.11-29.35 338.01-31.2L338.01-31.2Q341.58-31.84 345.17-32.1 348.75-32.37 352.42-32.37L352.42-32.37Q353.73-32.37 355.3-32.35 356.86-32.32 358.42-32.25 359.98-32.18 361.52-32.03 363.06-31.88 364.38-31.64L364.38-31.64Q365.75-31.4 367.09-30.76 368.43-30.13 369.6-29.2 370.78-28.27 371.65-27.08 372.53-25.88 372.92-24.51L372.92-24.51Q372.97-24.37 373-24.02 373.02-23.68 373.02-23.27 373.02-22.85 373.02-22.51 373.02-22.17 373.02-22.02ZM362.13-10.55L362.13-10.55 362.13-16.8Q360.72-16.85 359.3-16.87 357.89-16.89 356.47-16.89L356.47-16.89Q356.18-16.89 354.83-16.87 353.49-16.85 351.95-16.75 350.41-16.65 349.14-16.5 347.88-16.36 347.68-16.06L347.68-16.06Q347.44-15.67 347.36-15.26 347.29-14.84 347.29-14.4L347.29-14.4Q347.29-14.06 347.34-13.48 347.39-12.89 347.51-12.26 347.63-11.62 347.78-11.08 347.92-10.55 348.17-10.3L348.17-10.3Q348.36-10.06 348.83-9.94 349.29-9.81 349.83-9.74 350.37-9.67 350.9-9.64 351.44-9.62 351.73-9.62L351.73-9.62Q352.9-9.62 354.25-9.72 355.59-9.81 356.98-9.94 358.37-10.06 359.69-10.23 361.01-10.4 362.13-10.55ZM402.02-8.64L402.02-8.64 401.19-0.05Q399.63 0.05 398.07 0.12 396.51 0.2 394.94 0.2L394.94 0.2Q394.11 0.2 392.75 0.15 391.38 0.1 389.91-0.02 388.45-0.15 387.13-0.37 385.81-0.59 385.03-0.93L385.03-0.93Q383.86-1.46 383.1-2.34 382.35-3.22 381.86-4.27 381.37-5.32 381.08-6.52 380.78-7.71 380.64-8.89L380.64-8.89Q380.49-10.01 380.42-11.3 380.34-12.6 380.32-13.96 380.29-15.33 380.29-16.63 380.29-17.92 380.29-19.04L380.29-19.04 380.29-20.51 377.27-20.51Q377.46-22.71 377.49-24.85 377.51-27 377.71-29.2L377.71-29.2 380.64-29.1 380.64-36.33Q383.42-35.79 386.18-35.77 388.94-35.74 391.72-35.55L391.72-35.55 391.62-28.08 395.72-27.83Q395.72-27.49 395.75-27.2 395.77-26.9 395.77-26.56L395.77-26.56Q395.77-25.2 395.55-23.9 395.33-22.61 394.99-21.29L394.99-21.29 391.43-21.29Q391.33-19.04 391.28-16.8 391.23-14.55 391.23-12.3L391.23-12.3Q391.23-11.23 391.31-10.38 391.38-9.52 391.7-8.94 392.01-8.35 392.75-8.06 393.48-7.76 394.8-7.76L394.8-7.76Q396.6-7.76 398.41-8.01 400.22-8.25 402.02-8.64ZM410.57-32.67L410.57-32.67Q410.57-31.69 410.15-30.83 409.74-29.98 409.03-29.35 408.32-28.71 407.44-28.34 406.56-27.98 405.68-27.98L405.68-27.98Q404.71-27.98 403.85-28.42 403-28.86 402.36-29.54 401.73-30.22 401.39-31.13 401.04-32.03 401.04-32.96L401.04-32.96Q401.04-33.89 401.41-34.69 401.78-35.5 402.39-36.08 403-36.67 403.8-37.01 404.61-37.35 405.54-37.35L405.54-37.35Q406.46-37.35 407.37-36.99 408.27-36.62 408.98-35.96 409.69-35.3 410.13-34.45 410.57-33.59 410.57-32.67ZM412.57-24.37L412.57-24.37Q412.32-21.78 412.18-19.24 412.03-16.7 411.88-14.16L411.88-14.16Q411.69-11.18 411.22-8.25 410.76-5.32 410.18-2.39L410.18-2.39 402.7-1.61Q402.7-3.17 402.73-4.69 402.75-6.2 402.75-7.76L402.75-7.76Q402.75-11.77 402.61-15.77 402.46-19.78 402.31-23.78L402.31-23.78Q404.9-23.88 407.42-24.07 409.93-24.27 412.57-24.37ZM453.87-19.34L453.87-19.34Q453.87-18.95 453.87-18.58 453.87-18.21 453.82-17.82L453.82-17.82Q453.78-17.14 453.58-15.58 453.39-14.01 453.04-12.33 452.7-10.64 452.21-9.23 451.73-7.81 451.14-7.42L451.14-7.42Q450.85-7.23 449.16-7.08 447.48-6.93 445.06-6.79 442.64-6.64 439.81-6.54 436.98-6.45 434.42-6.37 431.85-6.3 429.92-6.25 427.99-6.2 427.36-6.2L427.36-6.2Q427.07-6.2 426.36-6.2 425.65-6.2 424.87-6.23 424.09-6.25 423.41-6.3 422.72-6.35 422.43-6.45L422.43-6.45Q421.74-6.69 421.06-7.25 420.38-7.81 419.79-8.52 419.21-9.23 418.74-9.99 418.28-10.74 418.08-11.43L418.08-11.43Q417.94-11.96 417.84-13.06 417.74-14.16 417.69-15.36 417.64-16.55 417.62-17.68 417.59-18.8 417.59-19.38L417.59-19.38Q417.59-20.31 417.64-21.95 417.69-23.58 417.94-25.29 418.18-27 418.64-28.49 419.11-29.98 419.99-30.57L419.99-30.57Q420.38-30.81 421.45-31.01 422.53-31.2 423.99-31.35 425.46-31.49 427.12-31.57 428.78-31.64 430.36-31.67 431.95-31.69 433.32-31.69 434.68-31.69 435.51-31.64L435.51-31.64Q436.25-31.59 437.61-31.57 438.98-31.54 440.67-31.49 442.35-31.45 444.16-31.32 445.96-31.2 447.53-31.01 449.09-30.81 450.28-30.49 451.48-30.18 451.87-29.74L451.87-29.74Q452.51-29.05 452.9-27.69 453.29-26.32 453.51-24.78 453.73-23.24 453.8-21.75 453.87-20.26 453.87-19.34ZM443.52-18.31L443.52-18.31Q443.52-18.9 443.47-19.68 443.42-20.46 443.33-21.26 443.23-22.07 443.03-22.83 442.84-23.58 442.55-24.07L442.55-24.07Q442.16-24.71 441.03-25.05 439.91-25.39 438.57-25.56 437.22-25.73 435.93-25.78 434.64-25.83 434-25.83L434-25.83Q433.66-25.83 432.78-25.81 431.9-25.78 430.95-25.73 430-25.68 429.17-25.56 428.34-25.44 428.09-25.29L428.09-25.29Q427.65-25 427.41-24.39 427.16-23.78 427.04-23.05 426.92-22.31 426.9-21.61 426.87-20.9 426.87-20.46L426.87-20.46Q426.87-20.02 426.95-18.87 427.02-17.72 427.14-16.43 427.26-15.14 427.46-14.06 427.65-12.99 427.95-12.7L427.95-12.7Q428.29-12.3 429.24-12.06 430.19-11.82 431.29-11.65 432.39-11.47 433.41-11.4 434.44-11.33 434.88-11.33L434.88-11.33Q435.66-11.33 436.74-11.38 437.81-11.43 438.91-11.62 440.01-11.82 440.98-12.16 441.96-12.5 442.55-13.09L442.55-13.09Q442.89-13.43 443.08-14.11 443.28-14.79 443.38-15.58 443.47-16.36 443.5-17.11 443.52-17.87 443.52-18.31ZM487.42-14.5L487.42-14.5Q487.42-13.18 487.42-11.84 487.42-10.5 487.32-9.18L487.32-9.18 476.43-8.5Q476.63-11.04 476.75-13.53 476.87-16.02 476.87-18.6L476.87-18.6Q476.87-18.85 476.87-19.43 476.87-20.02 476.82-20.68 476.77-21.34 476.72-21.92 476.67-22.51 476.63-22.75L476.63-22.75Q476.38-23.44 476.11-23.93 475.84-24.41 475.48-24.71 475.11-25 474.57-25.12 474.04-25.24 473.26-25.24L473.26-25.24Q472.67-25.24 471.77-25.15 470.86-25.05 469.94-24.85 469.01-24.66 468.18-24.37 467.35-24.07 467.01-23.68L467.01-23.68 466.91-9.28Q466.81-9.47 466.35-9.47 465.88-9.47 465.69-9.47L465.69-9.47Q464.22-9.47 462.66-9.35 461.1-9.23 459.63-9.03L459.63-9.03Q459-14.79 458.51-20.51 458.02-26.22 457.39-31.98L457.39-31.98Q458.36-32.03 459.34-32.06 460.32-32.08 461.29-32.08L461.29-32.08Q462.56-32.08 463.86-32.01 465.15-31.93 466.42-31.88L466.42-31.88 466.76-28.13Q468.13-30.37 470.47-31.88 472.82-33.4 475.5-33.4L475.5-33.4Q476.87-33.4 478.33-33.25 479.8-33.11 481.14-32.67 482.48-32.23 483.68-31.45 484.88-30.66 485.71-29.44L485.71-29.44Q486.1-28.86 486.37-27.71 486.63-26.56 486.83-25.12 487.03-23.68 487.15-22.07 487.27-20.46 487.32-18.99 487.37-17.53 487.39-16.33 487.42-15.14 487.42-14.5ZM545.61 0.78L545.61 0.78Q539.71 0.68 533.53 0.49 527.35 0.29 521.44-0.39L521.44-0.39Q520.76-0.49 519.91-0.56 519.05-0.63 518.37-0.88L518.37-0.88Q516.95-1.42 516.15-2.08 515.34-2.73 514.9-3.59 514.46-4.44 514.27-5.49 514.07-6.54 513.92-7.86L513.92-7.86Q513.49-11.28 513.24-14.72 513-18.16 513-21.63L513-21.63Q513-22.27 513.02-23.17 513.05-24.07 513.12-25.05 513.19-26.03 513.34-26.9 513.49-27.78 513.73-28.37L513.73-28.37Q514.9-30.91 517.17-32.45 519.44-33.98 522.18-34.84 524.91-35.69 527.82-35.96 530.72-36.23 533.16-36.23L533.16-36.23Q538.39-36.23 543.61-35.21L543.61-35.21 544-24.76Q539.02-26.32 533.7-26.32L533.7-26.32Q532.72-26.32 531.11-26.22 529.5-26.12 527.82-25.85 526.13-25.59 524.67-25.07 523.2-24.56 522.62-23.68L522.62-23.68Q522.32-23.24 522.1-22.46 521.88-21.68 521.76-20.83 521.64-19.97 521.59-19.14 521.54-18.31 521.54-17.77L521.54-17.77Q521.54-16.65 521.71-15.11 521.88-13.57 522.13-11.96 522.37-10.35 522.71-8.89 523.06-7.42 523.45-6.49L523.45-6.49 532.09-6.49 531.65-15.92Q535.02-15.67 538.41-15.7 541.81-15.72 545.17-15.72L545.17-15.72Q545.52-11.57 545.57-7.47 545.61-3.37 545.61 0.78ZM585.75-22.02L585.75-22.02Q585.75-17.92 585.46-13.87 585.16-9.81 584.87-5.76L584.87-5.76Q579.4-5.27 573.98-4.93 568.56-4.59 563.09-4.59L563.09-4.59Q562.6-4.59 561.29-4.61 559.97-4.64 558.5-4.71 557.04-4.79 555.72-4.91 554.4-5.03 553.96-5.27L553.96-5.27Q552.35-6.15 551.72-7.5 551.08-8.84 551.08-10.55L551.08-10.55Q551.08-11.13 551.13-12.11 551.18-13.09 551.32-14.16 551.47-15.23 551.72-16.16 551.96-17.09 552.3-17.53L552.3-17.53Q552.74-18.12 554.3-18.53 555.87-18.95 558.04-19.19 560.21-19.43 562.73-19.58 565.24-19.73 567.54-19.8 569.83-19.87 571.64-19.87 573.44-19.87 574.23-19.87L574.23-19.87Q574.37-20.95 574.37-21.97L574.37-21.97Q574.37-22.07 574.37-22.49 574.37-22.9 574.32-23L574.32-23Q574.18-23.29 573.39-23.49 572.61-23.68 571.47-23.78 570.32-23.88 568.98-23.95 567.63-24.02 566.36-24.02 565.09-24.02 564.12-24.02 563.14-24.02 562.7-24.02L562.7-24.02Q559.63-24.02 556.55-23.9 553.47-23.78 550.4-23.68L550.4-23.68Q550.59-25.54 550.71-27.44 550.84-29.35 550.74-31.2L550.74-31.2Q554.3-31.84 557.89-32.1 561.48-32.37 565.14-32.37L565.14-32.37Q566.46-32.37 568.02-32.35 569.59-32.32 571.15-32.25 572.71-32.18 574.25-32.03 575.79-31.88 577.11-31.64L577.11-31.64Q578.47-31.4 579.82-30.76 581.16-30.13 582.33-29.2 583.5-28.27 584.38-27.08 585.26-25.88 585.65-24.51L585.65-24.51Q585.7-24.37 585.72-24.02 585.75-23.68 585.75-23.27 585.75-22.85 585.75-22.51 585.75-22.17 585.75-22.02ZM574.86-10.55L574.86-10.55 574.86-16.8Q573.44-16.85 572.03-16.87 570.61-16.89 569.2-16.89L569.2-16.89Q568.9-16.89 567.56-16.87 566.22-16.85 564.68-16.75 563.14-16.65 561.87-16.5 560.6-16.36 560.41-16.06L560.41-16.06Q560.16-15.67 560.09-15.26 560.02-14.84 560.02-14.4L560.02-14.4Q560.02-14.06 560.06-13.48 560.11-12.89 560.24-12.26 560.36-11.62 560.5-11.08 560.65-10.55 560.89-10.3L560.89-10.3Q561.09-10.06 561.55-9.94 562.02-9.81 562.56-9.74 563.09-9.67 563.63-9.64 564.17-9.62 564.46-9.62L564.46-9.62Q565.63-9.62 566.97-9.72 568.32-9.81 569.71-9.94 571.1-10.06 572.42-10.23 573.74-10.4 574.86-10.55ZM637.11-12.35L637.11-12.35Q637.11-10.3 637.04-8.33 636.97-6.35 636.77-4.35L636.77-4.35Q634.72-4.25 632.84-4.13 630.96-4 628.91-3.61L628.91-3.61Q629.5-7.13 629.5-10.69L629.5-10.69Q629.5-11.33 629.4-12.87 629.3-14.4 629.13-16.09 628.96-17.77 628.69-19.19 628.42-20.61 628.08-21.04L628.08-21.04Q627.84-21.34 627.35-21.48 626.86-21.63 626.32-21.7 625.79-21.78 625.25-21.8 624.71-21.83 624.37-21.83L624.37-21.83Q623.78-21.83 622.98-21.78 622.17-21.73 621.34-21.61 620.51-21.48 619.75-21.24 619-21 618.51-20.65L618.51-20.65Q618.27-20.46 618.09-19.63 617.92-18.8 617.83-17.63 617.73-16.46 617.66-15.09 617.58-13.72 617.53-12.52 617.48-11.33 617.48-10.42 617.48-9.52 617.48-9.28L617.48-9.28Q617.48-6.05 617.63-2.83L617.63-2.83Q616.21-2.78 614.87-2.73 613.53-2.69 612.11-2.69L612.11-2.69Q611.97-2.69 611.72-2.69 611.48-2.69 611.23-2.73L611.23-2.73Q610.94-2.73 610.65-2.78L610.65-2.78 610.65-6.35Q610.65-7.86 610.6-9.47 610.55-11.08 610.5-12.3L610.5-12.3Q610.45-13.13 610.36-14.45 610.26-15.77 609.92-17.02 609.57-18.26 608.91-19.17 608.26-20.07 607.08-20.07L607.08-20.07Q606.55-20.07 605.64-19.9 604.74-19.73 603.79-19.46 602.84-19.19 602.03-18.82 601.22-18.46 600.88-18.07L600.88-18.07Q600.79-17.97 600.66-16.97 600.54-15.97 600.44-14.53 600.35-13.09 600.22-11.4 600.1-9.72 600.03-8.25 599.95-6.79 599.88-5.74 599.81-4.69 599.81-4.49L599.81-4.49Q598.83-4.39 597.83-4.32 596.83-4.25 595.85-4.25L595.85-4.25Q594.93-4.25 594-4.3 593.07-4.35 592.19-4.44L592.19-4.44Q591.95-10.64 591.48-16.7 591.02-22.75 590.48-28.96L590.48-28.96Q591.85-29.1 593.19-29.22 594.54-29.35 595.9-29.35L595.9-29.35Q597.22-29.35 598.54-29.3 599.86-29.25 601.22-29.2L601.22-29.2 600.59-25Q602.84-26.81 604.91-27.69 606.99-28.56 609.87-28.56L609.87-28.56Q610.99-28.56 611.84-28.3 612.7-28.03 613.41-27.56 614.12-27.1 614.8-26.46 615.48-25.83 616.26-25.1L616.26-25.1Q617.14-26.46 618.29-27.27 619.44-28.08 620.76-28.52 622.07-28.96 623.54-29.08 625-29.2 626.47-29.2L626.47-29.2Q627.64-29.2 628.93-29.13 630.23-29.05 631.42-28.71 632.62-28.37 633.6-27.69 634.57-27 635.11-25.83L635.11-25.83Q635.75-24.41 636.14-22.71 636.53-21 636.75-19.19 636.97-17.38 637.04-15.63 637.11-13.87 637.11-12.35ZM675.83-18.12L675.83-18.12Q669.43-17.77 663.09-17.55 656.74-17.33 650.34-17.09L650.34-17.09Q650.29-16.89 650.29-16.7 650.29-16.5 650.29-16.31L650.29-16.31Q650.29-14.65 651.05-13.77 651.81-12.89 652.93-12.52 654.05-12.16 655.42-12.11 656.79-12.06 657.96-12.06L657.96-12.06Q661.23-12.06 664.5-12.28 667.77-12.5 671.1-12.74L671.1-12.74 671.49-4.98Q668.26-4.83 665.06-4.74 661.87-4.64 658.64-4.64L658.64-4.64Q657.96-4.64 656.13-4.66 654.3-4.69 652.22-4.81 650.15-4.93 648.34-5.13 646.53-5.32 645.95-5.66L645.95-5.66Q644.43-6.54 643.58-7.91 642.73-9.28 642.26-10.89 641.8-12.5 641.63-14.18 641.46-15.87 641.41-17.43L641.41-17.43Q641.36-17.68 641.38-17.94 641.41-18.21 641.41-18.46L641.41-18.46Q641.41-21.04 641.97-23.27 642.53-25.49 644.04-27.59L644.04-27.59Q645.07-29.05 647.07-30.03 649.07-31.01 651.42-31.57 653.76-32.13 656.1-32.35 658.45-32.57 660.16-32.57L660.16-32.57Q661.67-32.57 663.87-32.3 666.07-32.03 668.24-31.4 670.41-30.76 672.17-29.76 673.93-28.76 674.56-27.29L674.56-27.29Q674.66-27 674.78-26.29 674.9-25.59 675.05-24.68 675.2-23.78 675.32-22.75 675.44-21.73 675.54-20.8 675.64-19.87 675.71-19.14 675.78-18.41 675.83-18.12ZM652.88-21.14L669.19-21.68Q668.9-23.83 668.09-25.07 667.29-26.32 666.09-26.93 664.89-27.54 663.36-27.71 661.82-27.88 660.06-27.88L660.06-27.88Q659.47-27.88 658.6-27.86 657.72-27.83 656.84-27.71 655.96-27.59 655.18-27.34 654.4-27.1 653.96-26.66L653.96-26.66Q653.61-26.37 653.39-25.85 653.18-25.34 653.03-24.76 652.88-24.17 652.81-23.61 652.74-23.05 652.74-22.66L652.74-22.66Q652.74-21.88 652.88-21.14L652.88-21.14Z" opacity="1" transform="matrix(1,0,0,1,0,0)" fill="#e8772e" class="undefined-text-1" data-fill-palette-color="secondary" id="text-1"></path></svg></g></svg></g></svg></g></svg></g><g><svg viewBox="0 0 127.78877127458178 127.78877127458178" height="127.78877127458178" width="127.78877127458178"><g><svg></svg></g><g id="icon-0"><svg viewBox="0 0 127.78877127458178 127.78877127458178" height="127.78877127458178" width="127.78877127458178"><g><path d="M0 63.894c0-35.288 28.606-63.894 63.894-63.894 35.288 0 63.894 28.606 63.895 63.894 0 35.288-28.606 63.894-63.895 63.895-35.288 0-63.894-28.606-63.894-63.895zM63.894 124.98c33.736 0 61.085-27.349 61.086-61.086 0-33.736-27.349-61.085-61.086-61.085-33.736 0-61.085 27.349-61.085 61.085 0 33.736 27.349 61.085 61.085 61.086z" data-fill-palette-color="accent" fill="#e8772e" stroke="transparent"></path></g><g transform="matrix(1,0,0,1,25.49976372264205,31.662935258833564)"><svg viewBox="0 0 76.78924382929767 64.46290075691465" height="64.46290075691465" width="76.78924382929767"><g><svg xmlns="http://www.w3.org/2000/svg" xmlns:xlink="http://www.w3.org/1999/xlink" version="1.1" x="0" y="0" viewBox="9.141996383666992 15.3489990234375 82.35830688476562 69.13800811767578" enable-background="new 0 0 100 100" xml:space="preserve" height="64.46290075691465" width="76.78924382929767" class="icon-a-0" data-fill-palette-color="accent" id="a-0"><path fill="#e8772e" d="M29.006 41.459c-1.054 0-1.909 0.854-1.909 1.909s0.854 1.909 1.909 1.909c1.054 0 1.909-0.855 1.909-1.909S30.06 41.459 29.006 41.459zM31.649 24.719c-2.681-0.381-4.673 0.096-5.94 1.414-1.816 1.889-1.323 4.739-1.302 4.859 0.09 0.494 0.559 0.822 1.056 0.731 0.493-0.09 0.821-0.563 0.731-1.056-0.004-0.02-0.338-2.069 0.823-3.276 0.84-0.873 2.315-1.167 4.376-0.875 1.743 0.247 2.556 1.888 2.59 3.405 0.038 1.709-0.886 3.614-3.035 4.017-2.475 0.463-2.885 1.912-2.799 4.599 0.015 0.492 0.418 0.879 0.906 0.879 0.01 0 0.019 0 0.029-0.001 0.502-0.015 0.894-0.434 0.878-0.935-0.079-2.496 0.274-2.563 1.319-2.758 3.197-0.598 4.571-3.365 4.517-5.842C35.748 27.598 34.445 25.116 31.649 24.719zM49.045 54.181c0.227-0.246 0.301-0.596 0.193-0.911-1.142-3.33-2.356-7.044-2.602-8.055 1.692-2.993 2.585-6.387 2.585-9.826 0-11.05-8.989-20.04-20.039-20.04-11.05 0-20.04 8.989-20.04 20.04 0 11.05 8.989 20.04 20.04 20.04 3.82 0 7.521-1.078 10.735-3.12l8.234 2.135C48.474 54.526 48.819 54.426 49.045 54.181zM39.988 50.451l-0.015 0.058c-0.228-0.059-0.476-0.035-0.69 0.068l-0.011-0.016c-2.996 1.996-6.485 3.052-10.09 3.052-10.049 0-18.224-8.176-18.224-18.224 0-10.049 8.176-18.224 18.224-18.224 10.049 0 18.223 8.176 18.223 18.224 0 3.196-0.848 6.349-2.493 9.182-0.241 0.41-0.35 0.596 2.062 7.692L39.988 50.451zM87.28 66.174c-2.619-3.025-6.357-4.559-11.109-4.559-0.242 0-0.446 0.121-0.613 0.285l-0.024-0.024c-0.024 0.024-2.429 2.346-6.467 2.346-4.002 0-6.444-2.324-6.468-2.347l-0.024 0.024c-0.167-0.163-0.37-0.283-0.611-0.283-4.752 0-8.49 1.534-11.11 4.559-5.532 6.39-4.061 17.083-3.995 17.535 0.064 0.446 0.447 0.777 0.898 0.777h42.619c0.451 0 0.834-0.332 0.898-0.777C91.341 83.256 92.813 72.564 87.28 66.174zM69.068 66.036c2.005 0 3.645-0.49 4.911-1.061l-4.911 10.174-4.911-10.173C65.423 65.547 67.064 66.036 69.068 66.036zM89.562 82.67H48.574c-0.22-2.504-0.535-10.469 3.655-15.308 2.157-2.491 5.24-3.81 9.171-3.924l6.851 14.193c0.303 0.628 1.332 0.628 1.635 0l6.851-14.193c3.929 0.114 7.01 1.432 9.166 3.919C90.089 72.185 89.779 80.162 89.562 82.67zM69.068 58.55c6.636 0 12.034-5.398 12.034-12.034 0-6.636-5.398-12.035-12.034-12.035-6.636 0-12.034 5.399-12.034 12.035C57.034 53.152 62.433 58.55 69.068 58.55zM69.068 36.296c5.635 0 10.219 4.585 10.219 10.22s-4.584 10.219-10.219 10.219c-5.635 0-10.219-4.584-10.219-10.219S63.433 36.296 69.068 36.296z" data-fill-palette-color="accent"></path></svg></g></svg></g></svg></g></svg></g></svg></g><defs></defs></svg><rect width="395.52" height="93.94316201284363" fill="none" stroke="none" visibility="hidden"></rect></g></svg></g></svg>